<svg width="24" height="24" viewBox="0 0 24 24" fill="none" xmlns="http://www.w3.org/2000/svg">
<g clip-path="url(#clip0_10_7858)">
<path fill-rule="evenodd" clip-rule="evenodd" d="M3.4747 18H19.0255C18.7446 16.9447 18.6057 15.4634 18.504 13.4452C18.3996 11.3714 18.3494 10.6129 18.2188 9.52628C18.1764 9.17302 18.1286 8.83361 18.0748 8.50532C17.6098 5.66901 15.8164 4.12222 12.5131 3.80943C12.663 3.57593 12.75 3.29812 12.75 3C12.75 2.17157 12.0784 1.5 11.25 1.5C10.4216 1.5 9.75 2.17157 9.75 3C9.75 3.29813 9.83698 3.57595 9.98694 3.80946C6.68392 4.12239 4.89077 5.66916 4.42573 8.50532C4.3719 8.83361 4.32417 9.17303 4.28172 9.52629C4.15116 10.6128 4.1009 11.371 3.99639 13.4448C3.89468 15.4632 3.75562 16.9446 3.4747 18ZM19.738 19.5H2.76207C2.29883 20.0299 1.65627 20.25 0.75 20.25C0.335786 20.25 0 19.9142 0 19.5C0 19.0858 0.335786 18.75 0.75 18.75C1.92915 18.75 2.28634 17.5754 2.49829 13.3693C2.60463 11.2592 2.65623 10.4808 2.79244 9.34733C2.83737 8.97339 2.88808 8.61279 2.9455 8.26261C3.44762 5.20032 5.26519 3.29205 8.28003 2.5739C8.48692 1.11885 9.7378 0 11.25 0C12.7622 0 14.013 1.11878 14.22 2.57376C17.2351 3.29181 19.0529 5.20013 19.5551 8.26261C19.6125 8.6128 19.6632 8.97339 19.7081 9.34734C19.8443 10.481 19.8959 11.2596 20.0022 13.3698C20.2139 17.5756 20.571 18.75 21.75 18.75C22.1642 18.75 22.5 19.0858 22.5 19.5C22.5 19.9142 22.1642 20.25 21.75 20.25C20.8437 20.25 20.2012 20.0299 19.738 19.5ZM8.25 21H14.25C14.25 22.6569 12.9069 24 11.25 24C9.59315 24 8.25 22.6569 8.25 21Z" fill="white"/>
</g>
<defs>
<clipPath id="clip0_10_7858">
<rect width="24" height="24" fill="white"/>
</clipPath>
</defs>
</svg>
