<svg width="24" height="24" viewBox="0 0 24 24" fill="none" xmlns="http://www.w3.org/2000/svg">
<path d="M22.4238 5.52669L12.9568 13.3683C12.4018 13.828 11.5982 13.828 11.0432 13.3683L1.5762 5.52669C1.52677 5.67548 1.5 5.83461 1.5 6V18C1.5 18.8284 2.17157 19.5 3 19.5H21C21.8284 19.5 22.5 18.8284 22.5 18V6C22.5 5.83461 22.4732 5.67548 22.4238 5.52669ZM3 3H21C22.6569 3 24 4.34315 24 6V18C24 19.6569 22.6569 21 21 21H3C1.34315 21 0 19.6569 0 18V6C0 4.34315 1.34315 3 3 3ZM2.68454 4.5L11.0495 11.4051C11.6019 11.8611 12.3996 11.8629 12.9541 11.4094L21.4019 4.5H2.68454Z" fill="white"/>
</svg>
